<?xml version="1.0"?>
<svg xmlns="http://www.w3.org/2000/svg" viewBox="0 0 22 24" width="22" height="24" fill="none"><path d="M8.18 19.489C3.05 21.027 3.05 16.925 1 16.412m14.359 6.154v-3.97a3.457 3.457 0 0 0-.964-2.676C17.615 15.56 21 14.34 21 8.74a5.58 5.58 0 0 0-1.538-3.846 5.2 5.2 0 0 0-.093-3.867S18.16.67 15.36 2.545a13.723 13.723 0 0 0-7.18 0C5.38.67 4.17 1.027 4.17 1.027a5.2 5.2 0 0 0-.092 3.867 5.58 5.58 0 0 0-1.539 3.877c0 5.559 3.385 6.78 6.606 7.18a3.456 3.456 0 0 0-.965 2.646v3.969" stroke="#8FA6B2" stroke-width="2" stroke-linecap="round" stroke-linejoin="round"></path></svg>
